# xmcd
#
# Track frame offsets:
#	151
#	12841
#	27421
#	45203
#	59459
#	77549
#	94221
#	110982
#	125640
#	142688
#	157503
#	170972
#	185611
#	200107
#	215942
#	230199
#
# Disc length: 3322 seconds
#
# Revision: 1
# Processed by: cddbd v1.5PL3 Copyright (c) Steve Scherf et al.
# Submitted via: audiograbber 1.83.01
#
DISCID=e60cf810
DTITLE=Moore and Moore - Million Roses
DYEAR=2001
DGENRE=Country
TTITLE0=Let's Forget While The Forggetin's Good
TTITLE1=Snow White Is Blue
TTITLE2=Wings
TTITLE3=Million Roses
TTITLE4=I Don't Have The Heart
TTITLE5=Working On You
TTITLE6=His Song
TTITLE7=Lie, Lie Again
TTITLE8=There's Enough Of Me To Go Around
TTITLE9=Sister, My Sister
TTITLE10=Bill, You're Still The One
TTITLE11=Ring Around Rosie's Finger
TTITLE12=I Love It When A Man Does This
TTITLE13=Almost Doesn't Count
TTITLE14=I Just Know
TTITLE15=Wish You Were Here
EXTD=
EXTT0=
EXTT1=
EXTT2=
EXTT3=
EXTT4=
EXTT5=
EXTT6=
EXTT7=
EXTT8=
EXTT9=
EXTT10=
EXTT11=
EXTT12=
EXTT13=
EXTT14=
EXTT15=
PLAYORDER=
